<!DOCTYPE svg PUBLIC "-//W3C//DTD SVG 1.1//EN" "http://www.w3.org/Graphics/SVG/1.1/DTD/svg11.dtd">
<!-- Uploaded to: SVG Repo, www.svgrepo.com, Transformed by: SVG Repo Mixer Tools -->
<svg fill="#ffffff" width="800px" height="800px" viewBox="0 0 32 32" id="icon" xmlns="http://www.w3.org/2000/svg" stroke="#ffffff">
<g id="SVGRepo_bgCarrier" stroke-width="0"/>
<g id="SVGRepo_tracerCarrier" stroke-linecap="round" stroke-linejoin="round"/>
<g id="SVGRepo_iconCarrier"> <defs> <style> .cls-1 { fill: none; } </style> </defs> <title>dew-point--filled</title> <path d="M24,10a4,4,0,1,1,4-4A4.0045,4.0045,0,0,1,24,10Zm0-6a2,2,0,1,0,2,2A2.0021,2.0021,0,0,0,24,4Z"/> <path d="M14.5,30A5.4962,5.4962,0,0,1,9,24.52c0-3.4426,4.3442-21.0141,4.5293-21.76a1,1,0,0,1,1.9414,0C15.6558,3.5059,20,21.0774,20,24.52A5.4962,5.4962,0,0,1,14.5,30Z"/> <rect id="_Transparent_Rectangle_" data-name="&lt;Transparent Rectangle&gt;" class="cls-1" width="32" height="32"/> </g>
</svg>